<?xml version="1.0" encoding="utf-8"?>
<!-- Generator: Adobe Illustrator 22.1.0, SVG Export Plug-In . SVG Version: 6.00 Build 0)  -->
<svg version="1.1" id="レイヤー_1" xmlns="http://www.w3.org/2000/svg" xmlns:xlink="http://www.w3.org/1999/xlink" x="0px"
	 y="0px" viewBox="0 0 80 50" style="enable-background:new 0 0 80 50;" xml:space="preserve">
<g id="dee-logo">
	<g>
		<path d="M30.1,22.7L4.9,2.2C2.9,0.6,0,2,0,4.5l0,41c0,2.5,2.9,3.9,4.9,2.3l25.2-20.5C31.5,26.1,31.5,23.9,30.1,22.7z"/>
		<path d="M41.1,26.6l15.2,12.4c1.3,1.1,3.3,0.1,3.3-1.6V12.6c0-1.7-2-2.6-3.3-1.6L41.1,23.4C40.1,24.2,40.1,25.8,41.1,26.6z"/>
		<path d="M61.6,26.6l15.2,12.4C78,40,80,39.1,80,37.4V12.6c0-1.7-2-2.6-3.3-1.6L61.6,23.4C60.6,24.2,60.6,25.8,61.6,26.6z"/>
	</g>
</g>
</svg>
