<?xml version="1.0" encoding="utf-8"?>
<!-- Generator: Adobe Illustrator 22.1.0, SVG Export Plug-In . SVG Version: 6.00 Build 0)  -->
<svg version="1.1" id="レイヤー_1" xmlns="http://www.w3.org/2000/svg" xmlns:xlink="http://www.w3.org/1999/xlink" x="0px"
	 y="0px" viewBox="0 0 215.8 215.8" style="enable-background:new 0 0 215.8 215.8;" xml:space="preserve">
<style type="text/css">
	.st0{fill:#808080;}
</style>
<path d="M139.5,145.1c0,20.8-16.8,37.6-37.6,37.6s-25.5-16.8-25.5-37.6s4.7-37.6,25.5-37.6S139.5,124.3,139.5,145.1"/>
<g>
	<path d="M87.2,69.7c0,4.4-3.3,5.2-6.3,5.2h-4v-0.3c0.6,0,1.1-0.8,1.1-1.8v-6.4c0-0.9-0.5-1.8-1.1-1.8v-0.3h4
		C83.9,64.4,87.2,65.3,87.2,69.7z M84.5,69.7c0-4.7-2.2-5.1-3.7-5.1h-0.7v10.1h0.7C82.3,74.7,84.5,74.4,84.5,69.7z"/>
	<path class="st0" d="M95.1,71.4h-4.8c0.1,1.5,0.9,2.2,1.9,2.5c0.8,0.2,2-0.1,2.4-0.8l0.3,0.1c-0.2,0.8-1.1,2-3.1,2
		c-2,0-3.3-1.8-3.3-3.6c0-2.1,1.4-3.6,3.5-3.6C94.1,67.9,95.1,69,95.1,71.4z M93.3,71.1c0-1.9-0.6-3-1.4-3c-0.9,0-1.5,1.5-1.5,3
		H93.3z"/>
	<path class="st0" d="M103.1,68v0.3c-0.3,0-1,0-1.9,2.3l-1.8,4.5h-0.2c-2.7-5.8-2.8-6-2.8-6c-0.4-0.8-0.8-0.8-1-0.8V68h3.5v0.3
		c-0.8,0-0.3,1.1-0.3,1.1l1.5,3.2l0.8-2c0,0,0.9-2.3-0.7-2.3V68H103.1z"/>
	<path class="st0" d="M109.9,71.4h-4.8c0.1,1.5,0.9,2.2,1.9,2.5c0.8,0.2,2-0.1,2.4-0.8l0.3,0.1c-0.2,0.8-1.1,2-3.1,2
		c-2,0-3.3-1.8-3.3-3.6c0-2.1,1.4-3.6,3.5-3.6C108.9,67.9,109.9,69,109.9,71.4z M108.1,71.1c0-1.9-0.6-3-1.4-3c-0.9,0-1.5,1.5-1.5,3
		H108.1z"/>
	<path class="st0" d="M114.1,74.7V75H111v-0.3c0.6-0.2,0.6-0.8,0.6-1.6v-7.6c0-0.5-0.1-0.8-0.7-1v-0.3l2.6-0.6v9.4
		C113.5,74,113.6,74.6,114.1,74.7z"/>
	<path class="st0" d="M122.2,71.5c0,2-1.3,3.6-3.6,3.6c-2.3,0-3.6-1.6-3.6-3.6c0-2,1.3-3.6,3.6-3.6C121,67.9,122.2,69.5,122.2,71.5z
		 M120,71.5c0-2.7-0.3-3.3-1.3-3.3c-1.1,0-1.4,0.6-1.4,3.3s0.3,3.3,1.4,3.3C119.8,74.8,120,74.2,120,71.5z"/>
	<path class="st0" d="M131.2,71.5c0,2.4-1.6,3.5-3.7,3.5c-0.7,0-1.3-0.2-1.8-0.5v2.6c0,0.8,0.1,1.3,0.6,1.5v0.3h-3.1v-0.3
		c0.6-0.2,0.6-0.7,0.6-1.5v-7.6c0-0.5-0.1-0.6-0.8-0.8v-0.3l2.6-0.6v1.2c0.5-0.9,1.6-1.2,2.3-1.2C129.7,67.9,131.2,69.2,131.2,71.5z
		 M129,71.7c0-2.4-0.6-3.2-1.8-3.2c-0.9,0-1.4,0.7-1.5,1.6v2.7c0.1,1.5,1,2,1.8,2C128.5,74.8,129,74,129,71.7z"/>
	<path class="st0" d="M143.6,75h-3.1v-0.3c0.6-0.2,0.6-0.8,0.6-1.6v-2.9c0-0.8-0.4-1.2-1.1-1.2c-0.6,0-1.2,0.7-1.2,1.3v2.9
		c0,0.8,0.1,1.4,0.6,1.6V75h-3.1v-0.3c0.6-0.2,0.6-0.8,0.6-1.6v-2.9c0-0.8-0.4-1.2-1.1-1.2c-0.6,0-1.2,0.7-1.2,1.2v3
		c0,0.8,0.1,1.4,0.6,1.5V75h-3.1v-0.3c0.6-0.2,0.6-0.8,0.6-1.5v-3.3c0-0.5-0.1-0.8-0.8-1.1v-0.3l2.6-0.6v1.5
		c0.4-0.9,1.3-1.5,2.3-1.5c1,0,1.7,0.5,1.9,1.6c0.3-0.9,1.3-1.6,2.3-1.6c1.2,0,1.9,0.5,1.9,2.3v3c0,0.8,0.1,1.4,0.6,1.6V75z"/>
	<path class="st0" d="M151,71.4h-4.8c0.1,1.5,0.9,2.2,1.9,2.5c0.8,0.2,2-0.1,2.4-0.8l0.3,0.1c-0.2,0.8-1.1,2-3.1,2
		c-2,0-3.3-1.8-3.3-3.6c0-2.1,1.4-3.6,3.5-3.6C150,67.9,151,69,151,71.4z M149.2,71.1c0-1.9-0.6-3-1.4-3c-0.9,0-1.5,1.5-1.5,3H149.2
		z"/>
	<path class="st0" d="M159.4,74.7V75h-3.1v-0.3c0.6-0.2,0.6-0.8,0.6-1.6v-2.9c0-0.7-0.5-1.2-1.2-1.2c-0.6,0-1.3,0.6-1.3,1.2v3
		c0,0.8,0.1,1.4,0.6,1.5V75H152v-0.3c0.6-0.2,0.6-0.8,0.6-1.5v-3.4c0-0.5-0.1-0.7-0.8-1v-0.3l2.6-0.6v1.6c0.3-0.9,1.5-1.6,2.5-1.6
		c1.2,0,1.9,0.5,1.9,2.3v3C158.8,73.9,158.9,74.6,159.4,74.7z"/>
	<path class="st0" d="M164.7,73.5l0.2,0.1c-0.3,0.7-1.2,1.5-2.2,1.5c-1.2,0-1.9-0.5-1.9-2.3v-4.5H160l0-0.3h0.8v-2l1.9-0.3V68h1.8
		l-0.1,0.3h-1.7v4.5c0,0.8,0.4,1.3,1.1,1.3C164.2,74,164.5,73.7,164.7,73.5z"/>
</g>
<g>
	<path d="M87.2,47.1c0,4.4-3.3,5.2-6.3,5.2h-4V52c0.6,0,1.1-0.8,1.1-1.8v-6.4c0-0.9-0.5-1.8-1.1-1.8v-0.3h4
		C83.9,41.7,87.2,42.7,87.2,47.1z M84.5,47.1c0-4.7-2.2-5.1-3.7-5.1h-0.7v10h0.7C82.3,52,84.5,51.7,84.5,47.1z"/>
	<path class="st0" d="M95.1,48.7h-4.8c0.1,1.5,0.9,2.2,1.9,2.5c0.8,0.2,2-0.1,2.4-0.8l0.3,0.1c-0.2,0.8-1.1,2-3.1,2
		c-2,0-3.3-1.8-3.3-3.6c0-2.1,1.4-3.6,3.5-3.6C94.1,45.2,95.1,46.3,95.1,48.7z M93.3,48.4c0-1.9-0.6-3-1.4-3c-0.9,0-1.5,1.5-1.5,3
		H93.3z"/>
	<path class="st0" d="M101.3,51.6c0,0-0.6,0.8-2.1,0.8c-1.8,0-2.7-0.7-2.7-0.7v-1.9h0.3c0.2,0.6,0.7,2.3,2.5,2.3
		c1.1,0,1.2-1.3,0.1-2.1l-1.5-0.9c-1.5-0.9-1.8-2.1-1-3.2c0,0,0.6-0.8,2.1-0.8c1.7,0,2.5,0.5,2.5,0.5v1.7h-0.3
		c-0.2-0.5-0.7-1.9-2.2-1.9c-1,0-1.4,1.2-0.1,2l1.5,0.9C101.6,49.2,102.1,50.5,101.3,51.6z"/>
	<path class="st0" d="M106,52v0.3H103V52c0.6-0.2,0.6-0.8,0.6-1.6v-3.3c0-0.5-0.1-0.7-0.8-1.1v-0.3l2.6-0.6v5.2
		C105.4,51.3,105.5,51.9,106,52z M104.4,44c-0.6,0-1-0.5-1-1s0.5-1,1-1s1,0.5,1,1S104.9,44,104.4,44z"/>
	<path class="st0" d="M114.9,46.5c-0.3,0.3-0.9,0.3-1.2-0.1c-0.1-0.2-0.2-0.4-0.2-0.6c0-0.1-0.3,0-0.6,0.3c0.4,0.4,0.5,0.9,0.5,1.4
		c0,1.2-1,2.3-2.9,2.3c-0.6,0-1-0.1-1.4-0.2c-0.4,0.2-1.3,1.4,0.3,1.4h2.1c1,0,2.8,0.1,2.5,2.4c0,0-0.1,1.3-1.6,2.1
		c-2.1,1.2-4.8,1-5.4-0.2c-0.5-1.1,0.4-2.3,1.3-2.7c-0.4-0.2-0.8-0.6-0.8-1.3c0,0,0-1.4,1.4-1.9c-0.8-0.3-1.2-1.1-1.2-1.9
		c0-1.2,1-2.3,2.9-2.3c1,0,1.7,0.3,2.2,0.7c0.4-0.6,1.1-0.8,1.4-0.9c0.3-0.1,0.6,0,0.8,0.3C115.3,45.6,115.2,46.2,114.9,46.5z
		 M108.5,52.7c-1.4,0.8-0.3,2-0.3,2c0.8,1,2.6,1.4,4,0.5c1-0.6,0.9-1.5,0.9-1.5s-0.1-0.8-1.2-0.8h-2
		C109.7,52.9,109.1,52.9,108.5,52.7z M111.7,47.5c0-1.7-0.5-2-1.1-2c-0.8,0-1.1,0.3-1.1,2c0,1.7,0.5,2,1.1,2
		C111.2,49.5,111.7,49.2,111.7,47.5z"/>
	<path class="st0" d="M123,52v0.3h-3.1V52c0.6-0.2,0.6-0.8,0.6-1.6v-2.9c0-0.7-0.5-1.2-1.2-1.2c-0.6,0-1.3,0.6-1.3,1.2v3
		c0,0.8,0.1,1.4,0.6,1.5v0.3h-3.1V52c0.6-0.2,0.6-0.8,0.6-1.5v-3.4c0-0.5-0.1-0.7-0.8-1v-0.3l2.6-0.6v1.6c0.3-0.9,1.5-1.6,2.5-1.6
		c1.2,0,1.9,0.5,1.9,2.3v3C122.3,51.3,122.4,51.9,123,52z"/>
</g>
<g>
	<path d="M87.2,94c0,4.4-3.3,5.2-6.3,5.2h-4V99c0.6,0,1.1-0.8,1.1-1.8v-6.4c0-0.9-0.5-1.8-1.1-1.8v-0.3h4
		C83.9,88.7,87.2,89.6,87.2,94z M84.5,94c0-4.7-2.2-5.1-3.7-5.1h-0.7v10h0.7C82.3,99,84.5,98.7,84.5,94z"/>
	<path class="st0" d="M95.4,98.2l0.3,0.1c-0.1,0.5-0.8,1.1-1.8,1.1c0,0-1.3,0-1.5-1.2c-0.2,0.7-1.1,1.2-2.2,1.2c0,0-1.7,0-1.7-1.5
		c0-1.6,1.3-1.8,3.9-2.4v-0.9c0-1.6-0.9-2.3-1.9-1.8c-0.5,0.2-0.5,0.5-0.4,0.5c0.2,0,0.4,0.1,0.6,0.3c0.3,0.4,0.2,0.9-0.2,1.2
		c-0.4,0.3-0.9,0.2-1.2-0.2c-0.2-0.3-0.2-0.6,0-0.9c0.2-0.3,0.3-0.7,1.2-1.1c0.7-0.4,1.5-0.3,1.5-0.3c2,0,2.5,1.2,2.5,3v2.2
		c0,0,0,1,0.7,1C95,98.4,95.3,98.4,95.4,98.2z M92.4,95.7c-1.5,0.3-2,1-2,1.8c0,0,0,1,1,1c0.5,0,0.9-0.4,1-0.8
		C92.4,97.7,92.4,95.7,92.4,95.7z"/>
	<path class="st0" d="M103.5,99v0.3h-3.1V99c0.6-0.2,0.6-0.8,0.6-1.6v-2.9c0-0.7-0.5-1.2-1.2-1.2c-0.6,0-1.3,0.6-1.3,1.2v3
		c0,0.8,0.1,1.4,0.6,1.5v0.3h-3.1V99c0.6-0.2,0.6-0.8,0.6-1.5V94c0-0.5-0.1-0.7-0.8-1v-0.3l2.6-0.6v1.6c0.3-0.9,1.5-1.6,2.5-1.6
		c1.2,0,1.9,0.5,1.9,2.3v3C102.9,98.2,103,98.8,103.5,99z"/>
	<path class="st0" d="M110.8,97.4c-0.2,0.8-1.1,1.9-3,1.9c-2,0-3.3-1.9-3.3-3.6c0-1.7,1.3-3.6,3.9-3.6c1.1,0,1.7,0.4,2,0.7
		c0.3,0.2,0.4,0.6,0.3,1c-0.1,0.5-0.7,0.9-1.2,0.7c-0.5-0.1-0.9-0.7-0.7-1.2c0.1-0.3,0.2-0.5,0.5-0.6c0.1-0.1-0.2-0.3-0.8-0.3
		c-0.5,0-2,0.5-2,3c0,1.6,0.9,2.3,1.9,2.6c0.8,0.2,1.9-0.2,2.3-0.7L110.8,97.4z"/>
	<path class="st0" d="M115,99v0.3h-3.1V99c0.6-0.2,0.6-0.8,0.6-1.6v-3.3c0-0.5-0.1-0.7-0.8-1v-0.3l2.6-0.6v5.2
		C114.4,98.2,114.5,98.8,115,99z M113.3,91c-0.6,0-1-0.5-1-1c0-0.6,0.5-1,1-1s1,0.5,1,1C114.4,90.5,113.9,91,113.3,91z"/>
	<path class="st0" d="M123.3,99v0.3h-3.1V99c0.6-0.2,0.6-0.8,0.6-1.6v-2.9c0-0.7-0.5-1.2-1.2-1.2c-0.6,0-1.3,0.6-1.3,1.2v3
		c0,0.8,0.1,1.4,0.6,1.5v0.3h-3.1V99c0.6-0.2,0.6-0.8,0.6-1.5V94c0-0.5-0.1-0.7-0.8-1v-0.3l2.6-0.6v1.6c0.3-0.9,1.5-1.6,2.5-1.6
		c1.2,0,1.9,0.5,1.9,2.3v3C122.7,98.2,122.8,98.8,123.3,99z"/>
	<path class="st0" d="M131.9,93.4c-0.3,0.3-0.9,0.3-1.2-0.1c-0.1-0.2-0.2-0.4-0.2-0.6c0-0.1-0.3,0-0.6,0.3c0.4,0.4,0.5,0.9,0.5,1.4
		c0,1.2-1,2.3-2.9,2.3c-0.6,0-1-0.1-1.4-0.2c-0.4,0.2-1.3,1.4,0.3,1.4h2.1c1,0,2.8,0.1,2.5,2.4c0,0-0.1,1.3-1.6,2.1
		c-2.1,1.2-4.8,1-5.4-0.2c-0.5-1.1,0.4-2.3,1.3-2.7c-0.4-0.2-0.8-0.6-0.8-1.3c0,0,0-1.4,1.4-1.9c-0.8-0.3-1.2-1.1-1.2-1.9
		c0-1.2,1-2.3,2.9-2.3c1,0,1.7,0.3,2.2,0.7c0.4-0.6,1.1-0.8,1.4-0.9c0.3-0.1,0.6,0,0.8,0.3C132.3,92.6,132.3,93.1,131.9,93.4z
		 M125.5,99.6c-1.4,0.8-0.3,2-0.3,2c0.8,1,2.6,1.4,4,0.5c1-0.6,0.9-1.5,0.9-1.5s-0.1-0.8-1.2-0.8h-2
		C126.7,99.9,126.1,99.9,125.5,99.6z M128.7,94.4c0-1.7-0.5-2-1.1-2c-0.8,0-1.1,0.3-1.1,2c0,1.7,0.5,2,1.1,2
		C128.3,96.4,128.7,96.1,128.7,94.4z"/>
</g>
</svg>
